<svg width="1678" height="631" viewBox="0 0 1678 631" fill="none" xmlns="http://www.w3.org/2000/svg">
<path d="M1164.15 189.44C1165.14 184.047 1165.53 180.904 1164.52 178.658C1163.34 176.019 1160.2 174.666 1153.79 172.421C1160.77 173.56 1164.19 173.854 1166.62 171.907C1168.51 170.399 1169.81 167.506 1171.71 162.594C1170.74 167.968 1170.34 171.13 1171.33 173.352C1172.53 176.015 1175.65 177.362 1182.08 179.613C1175.86 178.606 1172.48 178.259 1170.1 179.563C1167.72 180.867 1166.32 183.835 1164.15 189.44Z" fill="white"/>
<path d="M1033.98 195.492C1032.41 191.956 1031.4 189.96 1029.91 188.994C1028.16 187.857 1025.77 188.182 1021.09 189.149C1025.67 187.324 1027.8 186.275 1028.47 184.256C1028.99 182.687 1028.6 180.516 1027.77 176.934C1029.33 180.457 1030.35 182.466 1031.82 183.423C1033.59 184.569 1035.96 184.248 1040.66 183.276C1036.58 184.907 1034.45 185.912 1033.56 187.533C1032.68 189.153 1033.03 191.407 1033.98 195.492Z" fill="white"/>
<path d="M1137.95 265.264C1138.59 261.478 1138.83 259.273 1138.1 257.707C1137.25 255.868 1135.04 254.947 1130.53 253.428C1135.43 254.167 1137.83 254.345 1139.51 252.96C1140.83 251.888 1141.71 249.85 1142.99 246.393C1142.36 250.166 1142.11 252.384 1142.83 253.933C1143.69 255.789 1145.89 256.706 1150.41 258.229C1146.05 257.576 1143.67 257.361 1142.02 258.295C1140.37 259.228 1139.41 261.319 1137.95 265.264Z" fill="white"/>
<rect x="1.5" y="1.5" width="1675" height="628" rx="13.5" stroke="url(#paint0_linear_3191_3341)" stroke-width="3"/>
<defs>
<linearGradient id="paint0_linear_3191_3341" x1="1561.8" y1="-83.1317" x2="91.8754" y2="786.327" gradientUnits="userSpaceOnUse">
<stop stop-color="#0500FF"/>
<stop offset="0.5" stop-color="#FF8413"/>
<stop offset="1" stop-color="#FB26FF"/>
</linearGradient>
</defs>
</svg>
