<svg width="382" height="522" viewBox="0 0 382 522" fill="none" xmlns="http://www.w3.org/2000/svg">
<rect x="1.5" y="1.5" width="379" height="519" rx="13.5" fill="#0F1118"/>
<path d="M334.346 134.952C334.925 131.772 335.156 129.918 334.561 128.593C333.866 127.037 332.014 126.239 328.234 124.915C332.352 125.587 334.367 125.76 335.8 124.612C336.918 123.723 337.68 122.016 338.804 119.119C338.227 122.289 337.994 124.153 338.58 125.464C339.283 127.035 341.123 127.829 344.915 129.157C341.247 128.563 339.253 128.358 337.851 129.127C336.449 129.896 335.623 131.647 334.346 134.952Z" fill="white"/>
<path d="M260.423 129.678C259.501 127.592 258.901 126.416 258.024 125.846C256.995 125.175 255.584 125.367 252.826 125.937C255.524 124.861 256.783 124.242 257.173 123.051C257.48 122.126 257.252 120.846 256.765 118.733C257.684 120.811 258.287 121.996 259.153 122.56C260.193 123.236 261.595 123.047 264.362 122.474C261.96 123.435 260.701 124.028 260.179 124.984C259.656 125.94 259.864 127.269 260.423 129.678Z" fill="white"/>
<path d="M321.868 166.545C322.244 164.311 322.388 163.011 321.96 162.088C321.458 161.003 320.153 160.46 317.493 159.564C320.384 160 321.797 160.105 322.79 159.288C323.565 158.655 324.083 157.454 324.844 155.415C324.469 157.64 324.323 158.948 324.746 159.862C325.253 160.956 326.55 161.497 329.219 162.395C326.644 162.01 325.245 161.884 324.269 162.434C323.294 162.985 322.732 164.218 321.868 166.545Z" fill="white"/>
<rect x="1.5" y="1.5" width="379" height="519" rx="13.5" stroke="url(#paint0_linear_3354_9)" stroke-width="3"/>
<defs>
<linearGradient id="paint0_linear_3354_9" x1="355.548" y1="-68.7714" x2="-84.5025" y2="2.85701" gradientUnits="userSpaceOnUse">
<stop stop-color="#0500FF"/>
<stop offset="0.5" stop-color="#FF8413"/>
<stop offset="1" stop-color="#FB26FF"/>
</linearGradient>
</defs>
</svg>
