<svg width="42" height="42" viewBox="0 0 42 42" fill="none" xmlns="http://www.w3.org/2000/svg">
<g id="&#208;&#187;&#208;&#190;&#208;&#179;&#208;&#190;+&#208;&#189;&#208;&#176;&#208;&#183;&#208;&#178;&#208;&#176;&#208;&#189;&#208;&#184;&#208;&#181;">
<g id="&#208;&#187;&#208;&#190;&#208;&#179;&#208;&#190;">
<path id="Vector" d="M31.5 24.0025L29.7496 27L28.0017 30L26.2513 33L24.5008 36.0024L22.7504 38.9999L21 41.9999L17.4992 35.9999L15.7513 33L14.0008 30L10.5 24L12.2504 21L13.9983 18L15.7487 21L17.4992 24.0025L19.2496 27L21 30L24.5008 24L26.2487 21L27.9992 18L29.7496 21L31.5 24.0025Z" fill="#757373"/>
<path id="Vector_2" d="M42 23.9999L40.2496 26.9999H33.2504L35.0008 23.9999L29.7496 15L28.0017 12L26.2513 15L21 23.9999L17.4992 17.9999L15.7513 15L14.0008 12L8.74958 20.9999L7.00168 23.9999L8.74958 26.9999H1.75042L0 23.9999L1.75042 20.9999L3.50084 17.9999L5.24874 15L12.2504 2.99999L13.9983 0L21 12L24.5008 5.99998L26.2487 2.99999L27.9992 0L33.2504 8.99997L34.9983 12L36.7487 15L38.4992 17.9999V18.0024L40.2496 20.9999L42 23.9999Z" fill="#757373"/>
</g>
</g>
</svg>
