<svg width="45" height="45" viewBox="0 0 45 45" fill="none" xmlns="http://www.w3.org/2000/svg">
<path d="M13.3667 0C6.15315 0 0.283203 5.86995 0.283203 13.0835V31.1991C0.283203 38.4127 6.15315 44.2826 13.3667 44.2826H31.4823C38.6959 44.2826 44.5658 38.4127 44.5658 31.1991V13.0835C44.5658 5.86995 38.6959 0 31.4823 0H13.3667ZM13.3667 2.01285H31.4823C37.6079 2.01285 42.553 6.95792 42.553 13.0835V31.1991C42.553 37.3247 37.6079 42.2698 31.4823 42.2698H13.3667C7.24112 42.2698 2.29605 37.3247 2.29605 31.1991V13.0835C2.29605 6.95792 7.24112 2.01285 13.3667 2.01285ZM34.5016 8.05138C33.9677 8.05138 33.4558 8.26345 33.0783 8.64093C32.7008 9.01841 32.4887 9.53039 32.4887 10.0642C32.4887 10.5981 32.7008 11.11 33.0783 11.4875C33.4558 11.865 33.9677 12.0771 34.5016 12.0771C35.0354 12.0771 35.5474 11.865 35.9249 11.4875C36.3024 11.11 36.5144 10.5981 36.5144 10.0642C36.5144 9.53039 36.3024 9.01841 35.9249 8.64093C35.5474 8.26345 35.0354 8.05138 34.5016 8.05138ZM22.4245 11.0707C16.3223 11.0707 11.3539 16.0391 11.3539 22.1413C11.3539 28.2435 16.3223 33.212 22.4245 33.212C28.5267 33.212 33.4952 28.2435 33.4952 22.1413C33.4952 16.0391 28.5267 11.0707 22.4245 11.0707ZM22.4245 13.0835C27.4389 13.0835 31.4823 17.1269 31.4823 22.1413C31.4823 27.1557 27.4389 31.1991 22.4245 31.1991C17.4101 31.1991 13.3667 27.1557 13.3667 22.1413C13.3667 17.1269 17.4101 13.0835 22.4245 13.0835Z" fill="#757373"/>
</svg>
