<svg width="344" height="278" viewBox="0 0 344 278" fill="none" xmlns="http://www.w3.org/2000/svg">
<g clip-path="url(#clip0_3142_94)">
<rect x="344" width="278" height="344" rx="30" transform="rotate(90 344 0)" fill="#4462FF"/>
<path d="M341.118 246.474L331.478 256.019L321.845 265.576L312.203 275.131L302.558 284.694L292.918 294.239L283.275 303.794L276.129 277.603L272.565 264.51L268.992 251.414L261.845 225.223L271.487 215.669L281.12 206.112L284.694 219.207L288.264 232.312L291.84 245.398L295.414 258.494L314.698 239.385L324.331 229.828L333.973 220.274L337.547 233.369L341.118 246.474Z" fill="white"/>
<path d="M380.758 257.083L371.116 266.637L344.694 259.558L354.336 250.003L343.616 210.717L340.053 197.624L330.41 207.178L301.483 235.841L294.337 209.65L290.773 196.557L287.199 183.462L258.272 212.125L248.64 221.682L252.203 234.775L225.782 227.695L222.208 214.6L231.851 205.045L241.493 195.491L251.126 185.934L289.695 147.716L299.328 138.159L313.621 190.542L332.906 171.433L342.539 161.876L352.181 152.321L362.901 191.608L366.465 204.701L370.038 217.796L373.612 230.892L373.609 230.901L377.185 243.988L380.758 257.083Z" fill="white"/>
<path d="M88.6497 196.414L86.638 208.906L84.6382 221.403L82.6297 233.904L80.6246 246.413L78.6129 258.906L76.6044 271.406L56.8153 255.608L46.9293 247.705L37.0347 239.805L17.2455 224.007L19.254 211.506L21.2538 199.008L31.1484 206.908L41.0463 214.816L50.9375 222.707L60.8321 230.606L64.849 205.604L66.8489 193.107L68.8573 180.606L78.7519 188.506L88.6497 196.414Z" fill="white"/>
<path d="M124.346 182.601L122.338 195.102L98.5406 204.301L100.549 191.8L70.8653 168.102L60.9793 160.199L58.9708 172.7L52.9455 210.202L33.1563 194.404L23.2704 186.501L13.3758 178.601L7.35046 216.104L5.35062 228.601L15.2366 236.504L-8.56084 245.703L-18.4554 237.804L-16.447 225.303L-14.4385 212.802L-12.4387 200.305L-4.40495 150.302L-2.4051 137.804L37.1732 169.402L41.1901 144.4L43.1899 131.903L45.1984 119.402L74.8821 143.1L84.7681 151.003L94.6627 158.903L104.557 166.802L104.561 166.81L114.452 174.701L124.346 182.601Z" fill="white"/>
</g>
<defs>
<clipPath id="clip0_3142_94">
<rect x="344" width="278" height="344" rx="30" transform="rotate(90 344 0)" fill="white"/>
</clipPath>
</defs>
</svg>
