<svg width="30" height="30" viewBox="0 0 30 30" fill="none" xmlns="http://www.w3.org/2000/svg">
<path d="M22.5 16.7919L21.2497 18.8889L20.0012 20.9876L18.7509 23.0863L17.5006 25.1867L16.2503 27.2837L15 29.3824L12.4994 25.185L11.2509 23.0863L10.0006 20.9876L7.5 16.7902L8.7503 14.6915L9.9988 12.5928L11.2491 14.6915L12.4994 16.7919L13.7497 18.8889L15 20.9876L17.5006 16.7902L18.7491 14.6915L19.9994 12.5928L21.2497 14.6915L22.5 16.7919Z" fill="white"/>
<path d="M30 16.7896L28.7497 18.8883H23.7503L25.0006 16.7896L21.2497 10.4935L20.0012 8.39481L18.7509 10.4935L15 16.7896L12.4994 12.5922L11.2509 10.4935L10.0006 8.39481L6.2497 14.6909L5.0012 16.7896L6.2497 18.8883H1.2503L0 16.7896L1.2503 14.6909L2.5006 12.5922L3.7491 10.4935L8.7503 2.0987L9.9988 0L15 8.39481L17.5006 4.19741L18.7491 2.0987L19.9994 0L23.7503 6.29611L24.9988 8.39481L26.2491 10.4935L27.4994 12.5922V12.594L28.7497 14.6909L30 16.7896Z" fill="white"/>
</svg>
