<svg width="491" height="491" viewBox="0 0 491 491" fill="none" xmlns="http://www.w3.org/2000/svg">
<path d="M367.754 280.382L347.374 315.272L327.024 350.191L306.644 385.109L286.264 420.057L265.884 454.947L245.504 489.866L204.744 420.028L184.394 385.109L164.014 350.191L123.254 280.353L143.634 245.434L163.984 210.516L184.364 245.434L204.744 280.382L225.124 315.272L245.504 350.191L286.264 280.353L306.614 245.434L326.994 210.516L347.374 245.434L367.754 280.382Z" stroke="url(#paint0_linear_2922_115)" stroke-miterlimit="10"/>
<path d="M490 280.35L469.62 315.269L388.13 315.269L408.51 280.35L347.37 175.594L327.02 140.675L306.64 175.594L245.5 280.35L204.74 210.513L184.39 175.594L164.01 140.675L102.87 245.431L82.5196 280.35L102.87 315.269H21.3799L1 280.35L21.3799 245.431L41.7598 210.513L62.1103 175.594L143.63 35.9188L163.98 1L245.5 140.675L286.26 70.8375L306.61 35.9188L326.99 1L388.13 105.756L408.48 140.675L428.86 175.594L449.24 210.513V210.542L469.62 245.431L490 280.35Z" stroke="url(#paint1_linear_2922_115)" stroke-miterlimit="10"/>
<defs>
<linearGradient id="paint0_linear_2922_115" x1="245.504" y1="210.516" x2="245.504" y2="489.866" gradientUnits="userSpaceOnUse">
<stop stop-color="#3687FF"/>
<stop offset="1" stop-color="#561DF8"/>
</linearGradient>
<linearGradient id="paint1_linear_2922_115" x1="245.5" y1="1" x2="245.5" y2="315.269" gradientUnits="userSpaceOnUse">
<stop stop-color="#3687FF"/>
<stop offset="1" stop-color="#561DF8"/>
</linearGradient>
</defs>
</svg>
