<svg width="518" height="502" viewBox="0 0 518 502" fill="none" xmlns="http://www.w3.org/2000/svg">
<path d="M373.754 291.382L353.374 326.272L333.024 361.191L312.644 396.109L292.264 431.057L271.884 465.947L251.504 500.866L210.744 431.028L190.394 396.109L170.014 361.191L129.254 291.353L149.634 256.434L169.984 221.516L190.364 256.434L210.744 291.382L231.124 326.272L251.504 361.191L292.264 291.353L312.614 256.434L332.994 221.516L353.374 256.434L373.754 291.382Z" stroke="url(#paint0_linear_2922_125)" stroke-miterlimit="10"/>
<path d="M496 291.35L475.62 326.269L394.13 326.269L414.51 291.35L353.37 186.594L333.02 151.675L312.64 186.594L251.5 291.35L210.74 221.513L190.39 186.594L170.01 151.675L108.87 256.431L88.5196 291.35L108.87 326.269H27.3799L7 291.35L27.3799 256.431L47.7598 221.513L68.1103 186.594L149.63 46.9188L169.98 12L251.5 151.675L292.26 81.8375L312.61 46.9188L332.99 12L394.13 116.756L414.48 151.675L434.86 186.594L455.24 221.513V221.542L475.62 256.431L496 291.35Z" stroke="url(#paint1_linear_2922_125)" stroke-miterlimit="10"/>
<path d="M380.754 287.382L360.374 322.272L340.024 357.191L319.644 392.109L299.264 427.057L278.884 461.947L258.504 496.866L217.744 427.028L197.394 392.109L177.014 357.191L136.254 287.353L156.634 252.434L176.984 217.516L197.364 252.434L217.744 287.382L238.124 322.272L258.504 357.191L299.264 287.353L319.614 252.434L339.994 217.516L360.374 252.434L380.754 287.382Z" stroke="url(#paint2_linear_2922_125)" stroke-miterlimit="10"/>
<path d="M503 287.35L482.62 322.269L401.13 322.269L421.51 287.35L360.37 182.594L340.02 147.675L319.64 182.594L258.5 287.35L217.74 217.513L197.39 182.594L177.01 147.675L115.87 252.431L95.5196 287.35L115.87 322.269H34.3799L14 287.35L34.3799 252.431L54.7598 217.513L75.1103 182.594L156.63 42.9188L176.98 8L258.5 147.675L299.26 77.8375L319.61 42.9188L339.99 8L401.13 112.756L421.48 147.675L441.86 182.594L462.24 217.513V217.542L482.62 252.431L503 287.35Z" stroke="url(#paint3_linear_2922_125)" stroke-miterlimit="10"/>
<path d="M386.754 283.382L366.374 318.272L346.024 353.191L325.644 388.109L305.264 423.057L284.884 457.947L264.504 492.866L223.744 423.028L203.394 388.109L183.014 353.191L142.254 283.353L162.634 248.434L182.984 213.516L203.364 248.434L223.744 283.382L244.124 318.272L264.504 353.191L305.264 283.353L325.614 248.434L345.994 213.516L366.374 248.434L386.754 283.382Z" stroke="url(#paint4_linear_2922_125)" stroke-miterlimit="10"/>
<path d="M509 283.35L488.62 318.269L407.13 318.269L427.51 283.35L366.37 178.594L346.02 143.675L325.64 178.594L264.5 283.35L223.74 213.513L203.39 178.594L183.01 143.675L121.87 248.431L101.52 283.35L121.87 318.269H40.3799L20 283.35L40.3799 248.431L60.7598 213.513L81.1103 178.594L162.63 38.9188L182.98 4L264.5 143.675L305.26 73.8375L325.61 38.9188L345.99 4L407.13 108.756L427.48 143.675L447.86 178.594L468.24 213.513V213.542L488.62 248.431L509 283.35Z" stroke="url(#paint5_linear_2922_125)" stroke-miterlimit="10"/>
<path d="M394.754 280.382L374.374 315.272L354.024 350.191L333.644 385.109L313.264 420.057L292.884 454.947L272.504 489.866L231.744 420.028L211.394 385.109L191.014 350.191L150.254 280.353L170.634 245.434L190.984 210.516L211.364 245.434L231.744 280.382L252.124 315.272L272.504 350.191L313.264 280.353L333.614 245.434L353.994 210.516L374.374 245.434L394.754 280.382Z" stroke="url(#paint6_linear_2922_125)" stroke-miterlimit="10"/>
<path d="M517 280.35L496.62 315.269L415.13 315.269L435.51 280.35L374.37 175.594L354.02 140.675L333.64 175.594L272.5 280.35L231.74 210.513L211.39 175.594L191.01 140.675L129.87 245.431L109.52 280.35L129.87 315.269H48.3799L28 280.35L48.3799 245.431L68.7598 210.513L89.1103 175.594L170.63 35.9188L190.98 1L272.5 140.675L313.26 70.8375L333.61 35.9188L353.99 1L415.13 105.756L435.48 140.675L455.86 175.594L476.24 210.513V210.542L496.62 245.431L517 280.35Z" stroke="url(#paint7_linear_2922_125)" stroke-miterlimit="10"/>
<path d="M366.754 291.382L346.374 326.272L326.024 361.191L305.644 396.109L285.264 431.057L264.884 465.947L244.504 500.866L203.744 431.028L183.394 396.109L163.014 361.191L122.254 291.353L142.634 256.434L162.984 221.516L183.364 256.434L203.744 291.382L224.124 326.272L244.504 361.191L285.264 291.353L305.614 256.434L325.994 221.516L346.374 256.434L366.754 291.382Z" fill="white"/>
<path d="M489 291.35L468.62 326.269L387.13 326.269L407.51 291.35L346.37 186.594L326.02 151.675L305.64 186.594L244.5 291.35L203.74 221.513L183.39 186.594L163.01 151.675L101.87 256.431L81.5196 291.35L101.87 326.269H20.3799L0 291.35L20.3799 256.431L40.7598 221.513L61.1103 186.594L142.63 46.9188L162.98 12L244.5 151.675L285.26 81.8375L305.61 46.9188L325.99 12L387.13 116.756L407.48 151.675L427.86 186.594L448.24 221.513V221.542L468.62 256.431L489 291.35Z" fill="white"/>
<defs>
<linearGradient id="paint0_linear_2922_125" x1="251.504" y1="221.516" x2="251.504" y2="500.866" gradientUnits="userSpaceOnUse">
<stop stop-color="#3687FF"/>
<stop offset="1" stop-color="#561DF8"/>
</linearGradient>
<linearGradient id="paint1_linear_2922_125" x1="251.5" y1="12" x2="251.5" y2="326.269" gradientUnits="userSpaceOnUse">
<stop stop-color="#3687FF"/>
<stop offset="1" stop-color="#561DF8"/>
</linearGradient>
<linearGradient id="paint2_linear_2922_125" x1="258.504" y1="217.516" x2="258.504" y2="496.866" gradientUnits="userSpaceOnUse">
<stop stop-color="#3687FF"/>
<stop offset="1" stop-color="#561DF8"/>
</linearGradient>
<linearGradient id="paint3_linear_2922_125" x1="258.5" y1="8" x2="258.5" y2="322.269" gradientUnits="userSpaceOnUse">
<stop stop-color="#3687FF"/>
<stop offset="1" stop-color="#561DF8"/>
</linearGradient>
<linearGradient id="paint4_linear_2922_125" x1="264.504" y1="213.516" x2="264.504" y2="492.866" gradientUnits="userSpaceOnUse">
<stop stop-color="#3687FF"/>
<stop offset="1" stop-color="#561DF8"/>
</linearGradient>
<linearGradient id="paint5_linear_2922_125" x1="264.5" y1="4" x2="264.5" y2="318.269" gradientUnits="userSpaceOnUse">
<stop stop-color="#3687FF"/>
<stop offset="1" stop-color="#561DF8"/>
</linearGradient>
<linearGradient id="paint6_linear_2922_125" x1="272.504" y1="210.516" x2="272.504" y2="489.866" gradientUnits="userSpaceOnUse">
<stop stop-color="#3687FF"/>
<stop offset="1" stop-color="#561DF8"/>
</linearGradient>
<linearGradient id="paint7_linear_2922_125" x1="272.5" y1="1" x2="272.5" y2="315.269" gradientUnits="userSpaceOnUse">
<stop stop-color="#3687FF"/>
<stop offset="1" stop-color="#561DF8"/>
</linearGradient>
</defs>
</svg>
