<svg width="489" height="489" viewBox="0 0 489 489" fill="none" xmlns="http://www.w3.org/2000/svg">
<path d="M366.754 279.382L346.374 314.272L326.024 349.191L305.644 384.109L285.264 419.057L264.884 453.947L244.504 488.866L203.744 419.028L183.394 384.109L163.014 349.191L122.254 279.353L142.634 244.434L162.984 209.516L183.364 244.434L203.744 279.382L224.124 314.272L244.504 349.191L285.264 279.353L305.614 244.434L325.994 209.516L346.374 244.434L366.754 279.382Z" fill="white"/>
<path d="M489 279.35L468.62 314.269L387.13 314.269L407.51 279.35L346.37 174.594L326.02 139.675L305.64 174.594L244.5 279.35L203.74 209.513L183.39 174.594L163.01 139.675L101.87 244.431L81.5196 279.35L101.87 314.269H20.3799L0 279.35L20.3799 244.431L40.7598 209.513L61.1103 174.594L142.63 34.9188L162.98 0L244.5 139.675L285.26 69.8375L305.61 34.9188L325.99 0L387.13 104.756L407.48 139.675L427.86 174.594L448.24 209.513V209.542L468.62 244.431L489 279.35Z" fill="white"/>
</svg>
