<svg width="343" height="585" viewBox="0 0 343 585" fill="none" xmlns="http://www.w3.org/2000/svg">
<g clip-path="url(#clip0_3142_112)">
<rect x="343" width="585" height="343" rx="30" transform="rotate(90 343 0)" fill="#4462FF"/>
<path d="M161.841 403.074C120.578 416.964 98.3026 461.844 112.192 503.108L147.074 606.733C160.964 647.997 205.844 670.272 247.108 656.382L350.734 621.5C391.997 607.61 414.272 562.73 400.382 521.467L365.5 417.841C351.61 376.578 306.73 354.303 265.467 368.192L161.841 403.074ZM165.717 414.588L269.343 379.706C304.383 367.912 342.191 386.677 353.986 421.717L388.868 525.343C400.663 560.382 381.898 598.191 346.858 609.986L243.232 644.868C208.192 656.663 170.383 637.898 158.588 602.858L123.706 499.232C111.912 464.192 130.677 426.383 165.717 414.588ZM298.241 408.435C295.187 409.463 292.667 411.662 291.234 414.548C289.802 417.434 289.575 420.771 290.603 423.824C291.631 426.878 293.829 429.398 296.716 430.831C299.602 432.263 302.939 432.491 305.992 431.463C309.046 430.435 311.566 428.236 312.999 425.35C314.431 422.464 314.659 419.127 313.631 416.073C312.603 413.019 310.404 410.499 307.518 409.067C304.632 407.634 301.295 407.407 298.241 408.435ZM234.971 448.96C200.064 460.71 181.21 498.698 192.96 533.604C204.71 568.51 242.698 587.364 277.604 575.614C312.51 563.864 331.364 525.877 319.614 490.971C307.864 456.064 269.877 437.21 234.971 448.96ZM238.846 460.474C267.53 450.819 298.445 466.163 308.1 494.846C317.755 523.53 302.412 554.445 273.728 564.1C245.044 573.755 214.13 558.412 204.474 529.728C194.819 501.044 210.163 470.13 238.846 460.474Z" fill="white"/>
<path d="M145.483 284.283L91.3104 234.867C41.8349 189.735 19.3311 190.769 -25.7199 240.156L-75.136 294.328C-120.26 343.795 -119.323 366.227 -69.8471 411.358L-15.6748 460.774C33.7919 505.898 56.2239 504.961 101.356 455.486L150.772 401.313C195.903 351.838 194.958 329.415 145.483 284.283ZM57.6901 435.015L44.8092 423.265C39.9358 418.82 42.0701 413.537 41.3028 396.823C40.3834 382.511 37.9985 378.653 36.065 376.89C33.3988 374.457 31.9976 374.522 28.6393 378.203L18.0731 389.786C15.2142 392.921 12.5238 393.831 4.33964 386.365C-3.11615 378.586 -8.61717 369.147 -11.7103 358.825C-14.8034 348.504 -15.4002 337.595 -13.4514 326.998C-12.0973 305.426 -5.72887 284.468 5.14754 265.79C6.91125 263.856 9.23861 262.777 12.9201 266.135L25.7922 277.877C29.103 280.897 28.9499 283.459 27.1471 288.041C16.6144 312.142 12.6864 337.868 17.0124 341.814C18.6722 343.328 20.0646 343.256 23.8417 339.115L41.1244 320.169C48.4614 311.027 44.5389 306.106 47.3899 302.981C48.2008 302.21 49.28 301.786 50.3986 301.798C51.5171 301.809 52.5871 302.257 53.3816 303.044L73.6168 321.503C76.3801 324.023 76.042 326.238 73.0219 329.549L49.6991 355.116C47.1784 357.88 47.5327 359.885 48.3626 360.642C50.0223 362.156 52.14 362.406 57.9475 362.139C71.7272 360.135 85.1414 356.133 97.7676 350.262C99.2133 349.492 100.871 349.216 102.488 349.476C104.105 349.736 105.593 350.518 106.724 351.703L119.605 363.453C123.463 366.972 122.52 369.655 119.187 371.66C104.932 377.88 90.0516 382.553 74.8004 385.6C71.4815 386.454 69.9186 387.051 69.5978 391.303C69.1143 394.404 70.1869 402.29 69.9542 408.644C70.3519 417.073 69.3706 425.509 67.0492 433.621C64.8831 438.212 61.3628 438.366 57.6901 435.015Z" fill="white"/>
</g>
<defs>
<clipPath id="clip0_3142_112">
<rect x="343" width="585" height="343" rx="30" transform="rotate(90 343 0)" fill="white"/>
</clipPath>
</defs>
</svg>
