<svg width="45" height="45" viewBox="0 0 45 45" fill="none" xmlns="http://www.w3.org/2000/svg">
<path id="Vector" d="M28.9453 0H15.3594C2.95144 0 0 2.95144 0 15.3373V28.9232C0 41.329 2.92929 44.2826 15.3373 44.2826H28.9232C41.329 44.2826 44.2826 41.3533 44.2826 28.9453V15.3594C44.2826 2.95144 41.3533 0 28.9453 0ZM35.7493 31.5956H32.5189C31.2967 31.5956 30.9292 30.6059 28.7372 28.4139C26.8242 26.5696 26.016 26.3393 25.5311 26.3393C24.8625 26.3393 24.6787 26.5231 24.6787 27.4464V30.3513C24.6787 31.1373 24.4241 31.5979 22.3716 31.5979C20.3796 31.464 18.448 30.8588 16.7357 29.8322C15.0235 28.8055 13.5796 27.3868 12.5231 25.6928C10.0149 22.5708 8.26965 18.9068 7.42619 14.9919C7.42619 14.507 7.60997 14.0686 8.53326 14.0686H11.7615C12.5918 14.0686 12.8907 14.4383 13.2161 15.2908C14.7837 19.905 17.4584 23.917 18.5433 23.917C18.9596 23.917 19.1412 23.7333 19.1412 22.6948V17.9433C19.0039 15.7757 17.8525 15.5919 17.8525 14.8081C17.8673 14.6014 17.9621 14.4085 18.1167 14.2705C18.2712 14.1324 18.4735 14.06 18.6806 14.0686H23.7554C24.4484 14.0686 24.6787 14.414 24.6787 15.2443V21.6564C24.6787 22.3494 24.9776 22.5797 25.1857 22.5797C25.602 22.5797 25.923 22.3494 26.6847 21.5878C28.3206 19.5927 29.6572 17.37 30.6524 14.9897C30.7541 14.7037 30.9466 14.4589 31.2005 14.2926C31.4543 14.1263 31.7556 14.0476 32.0584 14.0686H35.2888C36.2564 14.0686 36.4623 14.5535 36.2564 15.2443C35.0818 17.8756 33.6284 20.3734 31.9211 22.6948C31.5735 23.2262 31.434 23.503 31.9211 24.1252C32.2422 24.6101 33.3736 25.5555 34.1352 26.4544C35.2421 27.5585 36.1613 28.8359 36.8564 30.2362C37.1332 31.1351 36.6704 31.5956 35.7493 31.5956Z" fill="#757373"/>
</svg>
